PathFileType	4	(X/Y/Z)	outputs\dynamic_markers.trc
DataRate	CameraRate	NumFrames	NumMarkers	Units	OrigDataRate	OrigDataStartFrame	OrigNumFrames
360.000000	360.000000	4	45	m	360.000000	0	612
Frame#	Time	C7			CLAV			LANK			LASI			LBHD			LELB			LFHD			LFIN			LFRM			LHEE			LKNE			LMANK			LMELB			LMKNE			LPSI			LSHO			LTHI			LTIB			LTOE			LUPA			LWRA			LWRB			RANK			RASI			RBAK			RBHD			RELB			RFHD			RFIN			RFRM			RHEE			RKNE			RMANK			RMELB			RMKNE			RPSI			RSHO			RTHI			RTIB			RTOE			RUPA			RWRA			RWRB			STRN			T10			
		X1	Y1	Z1	X2	Y2	Z2	X3	Y3	Z3	X4	Y4	Z4	X5	Y5	Z5	X6	Y6	Z6	X7	Y7	Z7	X8	Y8	Z8	X9	Y9	Z9	X10	Y10	Z10	X11	Y11	Z11	X12	Y12	Z12	X13	Y13	Z13	X14	Y14	Z14	X15	Y15	Z15	X16	Y16	Z16	X17	Y17	Z17	X18	Y18	Z18	X19	Y19	Z19	X20	Y20	Z20	X21	Y21	Z21	X22	Y22	Z22	X23	Y23	Z23	X24	Y24	Z24	X25	Y25	Z25	X26	Y26	Z26	X27	Y27	Z27	X28	Y28	Z28	X29	Y29	Z29	X30	Y30	Z30	X31	Y31	Z31	X32	Y32	Z32	X33	Y33	Z33	X34	Y34	Z34	X35	Y35	Z35	X36	Y36	Z36	X37	Y37	Z37	X38	Y38	Z38	X39	Y39	Z39	X40	Y40	Z40	X41	Y41	Z41	X42	Y42	Z42	X43	Y43	Z43	X44	Y44	Z44	X45	Y45	Z45	

1	0	-0.02097618766129017	1.637708187103271	0.04924647882580757	0.05705669522285461	1.53055214881897	0.1765911728143692	0.04298636317253113	0.07150037586688995	-0.2520224153995514	0.1992849707603455	1.050293803215027	0.006291324272751808	-0.03845473006367683	1.764210820198059	0.09882976859807968	0.3295460939407349	1.310329794883728	-0.130301907658577	0.1068665608763695	1.807775497436523	0.1385678946971893	0.2316252291202545	1.178684711456299	0.1982973366975784	0.2995335459709167	1.261740446090698	0.01322706788778305	-0.04021250456571579	0.06934928148984909	-0.2697518467903137	0.155839592218399	0.5316818952560425	-0.1034034714102745	-0.04437979310750961	0.08065970242023468	-0.1875561326742172	0.2467012703418732	1.298186063766479	-0.1691401749849319	0.06159675121307373	0.528281569480896	-0.04272245988249779	0.02524326927959919	1.112399101257324	-0.154009148478508	0.1824521869421005	1.625055909156799	0.05810418352484703	0.1790139377117157	0.6874135732650757	-0.1261763274669647	0.1376552581787109	0.4428620636463165	-0.1712948381900787	0.09905102103948593	0.07470986247062683	-0.09319179505109787	0.3087551891803741	1.444445610046387	-0.05432975292205811	0.2359828799962997	1.238692045211792	0.1073253527283669	0.2309469878673553	1.16084897518158	0.07704708725214005	-0.02036127634346485	0.1228919103741646	0.1157072484493256	-0.01172949559986591	1.027274012565613	0.1141228452324867	-0.1417457461357117	1.382819652557373	-0.04450712352991104	-0.06726369261741638	1.747900009155273	0.2231559008359909	-0.2680712640285492	1.230162024497986	0.1516058892011642	0.0729777067899704	1.793999910354614	0.2742168307304382	0.06302253156900406	1.242237091064453	0.259110301733017	-0.1023033782839775	1.242773175239563	0.2054414004087448	0.03516463562846184	0.111047089099884	0.03912999480962753	0.006798818707466125	0.5918823480606079	0.263528436422348	0.09342098981142044	0.09365744888782501	0.1329232603311539	-0.2490884363651276	1.220736742019653	0.05525890365242958	0.1210873648524284	0.5654723644256592	0.2279441654682159	-0.04477651044726372	1.095483183860779	-0.1177027672529221	-0.1561590433120728	1.584616661071777	0.1334258913993835	-0.07848624140024185	0.8344060182571411	0.1629699021577835	-0.02128585800528526	0.4298608899116516	0.2154520750045776	0.04679746180772781	0.08398013561964035	0.2667951285839081	-0.2374603748321533	1.382051229476929	0.1761173456907272	0.01737435720860958	1.254504799842834	0.1870950907468796	-0.01533775962889194	1.192299365997314	0.2343550771474838	0.08920444548130035	1.297072291374207	0.1549476534128189	-0.02139898017048836	1.273572564125061	-0.09725085645914078	
2	0.002777777777777778	-0.0209533330053091	1.637704491615295	0.049363873898983	0.05668032169342041	1.53052830696106	0.1768177896738052	0.04304997622966766	0.07163857668638229	-0.251927375793457	0.1993799060583115	1.05026388168335	0.00746597396209836	-0.03845899552106857	1.764158844947815	0.09884351491928101	0.3300150334835052	1.309591293334961	-0.1285635381937027	0.1068828403949738	1.807665109634399	0.1386115849018097	0.2310676127672195	1.179657578468323	0.2004651725292206	0.2990591526031494	1.261608004570007	0.01523983478546143	-0.04019588977098465	0.06963427364826202	-0.2696388065814972	0.1573495864868164	0.5310768485069275	-0.101093202829361	-0.04423706233501434	0.08091525733470917	-0.187443733215332	0.247090220451355	1.29732608795166	-0.1676276624202728	0.06317010521888733	0.5275974869728088	-0.04039838165044785	0.02562504820525646	1.111789345741272	-0.1533121019601822	0.1825112104415894	1.624843120574951	0.05870227888226509	0.1800963878631592	0.6869944930076599	-0.1238415837287903	0.1389429420232773	0.4427046775817871	-0.1694038063287735	0.09915773570537567	0.07463190704584122	-0.09311783313751221	0.3091359436511993	1.443755865097046	-0.0527741052210331	0.2353891581296921	1.239140152931213	0.1088827177882195	0.2307548224925995	1.161078572273254	0.07899588346481323	-0.02090559527277946	0.1222330182790756	0.1157332733273506	-0.01176606863737106	1.02724027633667	0.1148931682109833	-0.1416216641664505	1.382740020751953	-0.04458204656839371	-0.06733900308609009	1.747985243797302	0.2231648564338684	-0.2685508728027344	1.230436086654663	0.1510055810213089	0.07288498431444168	1.794039964675903	0.2742505967617035	0.06190833076834679	1.243171215057373	0.2601267993450165	-0.1032251641154289	1.243275880813599	0.2055878341197968	0.03459912165999413	0.1101974174380302	0.03912993893027306	0.00762060284614563	0.591159999370575	0.2637762129306793	0.09318952262401581	0.09289991110563278	0.1329236179590225	-0.2490497082471848	1.220816254615784	0.05480673909187317	0.1216308549046516	0.564759373664856	0.227338895201683	-0.04447035863995552	1.094966411590576	-0.1169878989458084	-0.1564655900001526	1.584801197052002	0.132956475019455	-0.07804659754037857	0.8335972428321838	0.1638524830341339	-0.02078871987760067	0.4292081892490387	0.2159708291292191	0.04718847945332527	0.0836176797747612	0.2667815089225769	-0.238144114613533	1.382372379302979	0.1753548681735992	0.01672398112714291	1.25501275062561	0.1877579391002655	-0.01656092889606953	1.192997574806213	0.2352650612592697	0.08875598013401031	1.297088384628296	0.1555978208780289	-0.02122888341546059	1.273289322853088	-0.09694221615791321	
3	0.005555555555555556	-0.02093424648046494	1.637692928314209	0.04943811148405075	0.05615012347698212	1.530569434165955	0.1769218444824219	0.04312343895435333	0.0717572346329689	-0.2518111765384674	0.1993050873279572	1.050129890441895	0.008834037929773331	-0.03847457468509674	1.764104247093201	0.09885671734809875	0.3303272426128387	1.308786630630493	-0.1268068552017212	0.1068708151578903	1.807563185691833	0.1386681795120239	0.2303355485200882	1.180619597434998	0.2027038186788559	0.2988565266132355	1.261539101600647	0.01723083853721619	-0.04010861739516258	0.06996241211891174	-0.2695042490959167	0.1590094119310379	0.530428409576416	-0.09867517650127411	-0.0441044494509697	0.08119934052228928	-0.1873088330030441	0.2475303560495377	1.296480894088745	-0.1660187393426895	0.06466075032949448	0.5268334746360779	-0.03791806846857071	0.02611101791262627	1.111096382141113	-0.152428925037384	0.1825078278779984	1.62463641166687	0.05933789163827896	0.1814644485712051	0.686394214630127	-0.1213348284363747	0.1400118470191956	0.4424863755702972	-0.1676796972751617	0.09935938566923141	0.07456649839878082	-0.09303583949804306	0.3093954920768738	1.442970275878906	-0.05141766741871834	0.2345386147499084	1.239631772041321	0.110778771340847	0.2298900485038757	1.161335229873657	0.08154013007879257	-0.02122864499688148	0.1215111166238785	0.1157221570611	-0.01190927624702454	1.027298927307129	0.115802064538002	-0.1415272057056427	1.382660150527954	-0.04463993757963181	-0.06742815673351288	1.748062491416931	0.2231655418872833	-0.2689834237098694	1.230690836906433	0.1503259688615799	0.07280077040195465	1.794086694717407	0.2742931544780731	0.06055569276213646	1.243999481201172	0.2612483501434326	-0.1041216403245926	1.243742823600769	0.2058425843715668	0.03413320332765579	0.1093103289604187	0.03911372274160385	0.008704373612999916	0.5903703570365906	0.2638649642467499	0.09305215626955032	0.09220722317695618	0.1331178694963455	-0.2490412294864655	1.220934271812439	0.05432457476854324	0.1222374215722084	0.5640097856521606	0.2266659140586853	-0.04423147067427635	1.094489693641663	-0.1163502037525177	-0.1567451059818268	1.584984183311462	0.132481724023819	-0.07740799337625504	0.8329067826271057	0.1646715998649597	-0.02025022730231285	0.4284579753875732	0.2166292667388916	0.04736579954624176	0.08327517658472061	0.2667768895626068	-0.2387642711400986	1.382728934288025	0.1747171878814697	0.0164492204785347	1.255469799041748	0.1881140023469925	-0.01763434521853924	1.193609595298767	0.236005112528801	0.08839061856269836	1.297135353088379	0.1564471870660782	-0.02103571407496929	1.273014068603516	-0.0965612456202507	
4	0.008333333333333333	-0.02091780677437782	1.63769543170929	0.04947498068213463	0.05595865845680237	1.530508875846863	0.1771296411752701	0.04316584765911102	0.0718555748462677	-0.2517502307891846	0.1992967575788498	1.050054311752319	0.009806807152926922	-0.03845120221376419	1.764030933380127	0.09888040274381638	0.3305959403514862	1.308213114738464	-0.1256368011236191	0.1068639829754829	1.807493329048157	0.1386853605508804	0.2299579083919525	1.181273221969604	0.2041694521903992	0.2988383769989014	1.261485576629639	0.0182417556643486	-0.03998368978500366	0.07025095820426941	-0.2694407999515533	0.1601192951202393	0.5298365950584412	-0.09692792594432831	-0.04399215057492256	0.0813845619559288	-0.1872186809778214	0.2478170692920685	1.295894026756287	-0.1648773103952408	0.06554544717073441	0.5264414548873901	-0.03622367978096008	0.02638046070933342	1.110622882843018	-0.1518975794315338	0.1825079172849655	1.624476909637451	0.0597810186445713	0.1823358982801437	0.6859683394432068	-0.1197382062673569	0.1406317353248596	0.442393034696579	-0.16649529337883	0.09946214407682419	0.07452615350484848	-0.09297171980142593	0.3095299005508423	1.442491054534912	-0.05030243098735809	0.2338911592960358	1.239928126335144	0.1119805723428726	0.2297524064779282	1.161512732505798	0.08294003456830978	-0.02133419364690781	0.1210453882813454	0.1157465800642967	-0.01200526114553213	1.027315974235535	0.116432897746563	-0.1414545774459839	1.382619857788086	-0.04468864575028419	-0.06747408211231232	1.748120069503784	0.2231759428977966	-0.2693036496639252	1.230871915817261	0.1499072760343552	0.07275407016277313	1.794107556343079	0.2743249833583832	0.05968213081359863	1.244530439376831	0.2619524896144867	-0.1045277491211891	1.24410355091095	0.2059048414230347	0.03389882296323776	0.1086937487125397	0.03908069431781769	0.009387129917740822	0.5898118019104004	0.2639652490615845	0.09292899072170258	0.0917549803853035	0.133066788315773	-0.249065175652504	1.221002817153931	0.05393827334046364	0.122625395655632	0.5635467767715454	0.2262143194675446	-0.04411392658948898	1.094151735305786	-0.1159384101629257	-0.1569528579711914	1.585110783576965	0.1320740133523941	-0.07711742073297501	0.8325420022010803	0.1651119738817215	-0.01986455731093884	0.4278981685638428	0.2170388698577881	0.04745468497276306	0.0830179825425148	0.2667416930198669	-0.2391813695430756	1.382944464683533	0.1742164492607117	0.01592760346829891	1.255823969841003	0.188678041100502	-0.01820901781320572	1.193965673446655	0.2365139573812485	0.08818242698907852	1.297226548194885	0.1571732312440872	-0.02081997133791447	1.272814512252808	-0.09616860747337341	
